<svg xmlns="http://www.w3.org/2000/svg" viewBox="0 0 148.281 90.375">
  <defs>
    <style>
      .cls-1 {
        fill: #fff;
        fill-rule: evenodd;
      }
    </style>
  </defs>
  <path id="logo_text" class="cls-1" d="M65.093,88.72a56.146,56.146,0,0,1-6.464.777,50.881,50.881,0,0,1-5.114.041,32.016,32.016,0,0,0,.941,3.682,0.719,0.719,0,0,0,.655.736c1.023,0,2.9-.123,4.01-0.2,2.946-.245,5.319-0.573,7.9-1.023a26.311,26.311,0,0,0,5.278,7.242,20.878,20.878,0,0,0-7.283-1.1c-6.751,0-10.76,3.273-10.76,7.937,0,5.4,5.2,8.47,14.852,8.47a36.452,36.452,0,0,0,4.541-.287,0.731,0.731,0,0,0,.777-0.572,25.032,25.032,0,0,0,.859-4.378,40.5,40.5,0,0,1-6.546.573c-6.424,0-10.147-1.269-10.147-4.337,0-2.578,2.578-3.846,6.833-3.846a18.711,18.711,0,0,1,8.674,2.086,13.5,13.5,0,0,1,1.678,1.064,0.839,0.839,0,0,0,1.473-.286,16.351,16.351,0,0,0,1.6-2.66,1.292,1.292,0,0,0,.246-0.695,0.787,0.787,0,0,0-.409-0.532,11.373,11.373,0,0,1-1.064-.9,46.608,46.608,0,0,1-6.26-8.633A65.3,65.3,0,0,0,79.5,89.5a0.479,0.479,0,0,0,.327-0.7,17.765,17.765,0,0,0-1.023-3.15c-0.246-.45-0.368-0.491-0.777-0.286A62.983,62.983,0,0,1,69.471,87.9c-0.532-1.1-.9-2.087-1.391-3.314a17.629,17.629,0,0,1-.655-2.046,5.374,5.374,0,0,1-.041-1.146c0-.573-0.327-0.859-1.391-0.859a32.207,32.207,0,0,0-4.869.655,13.51,13.51,0,0,1,2.046,3.314C63.825,86.061,64.4,87.248,65.093,88.72Zm32.674-5.2a32.629,32.629,0,0,1,8.264,5.319,0.7,0.7,0,0,0,.491.286,0.726,0.726,0,0,0,.45-0.327,26.75,26.75,0,0,0,2.087-2.864,1.133,1.133,0,0,0,.2-0.491,0.57,0.57,0,0,0-.287-0.45,26.836,26.836,0,0,0-8.019-4.869,0.683,0.683,0,0,0-.777.2A22.382,22.382,0,0,0,97.768,83.524ZM94.9,89.211a25.5,25.5,0,0,1-.368,3.682c-0.491,3.641-1.023,8.469-1.268,13.215a0.687,0.687,0,0,0,.573.818,28.091,28.091,0,0,0,2.782,1.1c0.532,0.123.7,0.123,0.941-.286a11.2,11.2,0,0,1,1.759-2.251c3.846-3.887,8.182-6.219,11.783-6.219,3.518,0,4.91,2,4.91,4.214,0,2.619-1.514,4.746-4.828,6.178a33.952,33.952,0,0,1-11.252,2.292,10.455,10.455,0,0,1,2.782,3.477c0.369,0.614.737,0.655,1.637,0.532a35.47,35.47,0,0,0,10.474-2.823c3.519-1.759,6.178-4.7,6.178-9.165,0-5.277-3.559-8.755-9.533-8.755-4.991,0-9.9,2.659-13.665,6.464a68.285,68.285,0,0,1,.982-7.446,7.67,7.67,0,0,1,.818-2.168,1.217,1.217,0,0,0,.2-0.614,0.879,0.879,0,0,0-.655-0.777A23.019,23.019,0,0,0,94.9,89.211Zm41.18-8.306a37.794,37.794,0,0,1-.327,4.664,86.459,86.459,0,0,0-.982,10.188A26.193,26.193,0,0,0,136,104.063a0.606,0.606,0,0,0,.573.532c1.023-.123,2.782-0.368,3.273-0.491a0.573,0.573,0,0,0,.532-0.654,5.106,5.106,0,0,1,.205-1.228A33.534,33.534,0,0,1,143,96.985a1.931,1.931,0,0,0,.409-1.023,0.94,0.94,0,0,0-.246-0.655,8.476,8.476,0,0,1-1.268-2.659c-1.105,2.087-1.964,3.641-2.864,5.237a41.247,41.247,0,0,1,.123-4.5c0.245-2.128.573-5.032,1.145-7.815a4.719,4.719,0,0,1,.737-1.923,0.939,0.939,0,0,0,.286-0.655,0.926,0.926,0,0,0-.777-0.818A21.449,21.449,0,0,0,136.084,80.906Zm13.093,0.082a19.629,19.629,0,0,1,.859,4.46c0.286,2.618.491,6.874,0.491,9.779,0,6.464-1.064,9.819-3.437,13.051-1.636,2.169-3.641,3.642-6.955,5.483a9.494,9.494,0,0,1,3.477,1.882,1.188,1.188,0,0,0,.86.45,1.42,1.42,0,0,0,.818-0.286,22.549,22.549,0,0,0,6.751-6.588c2.168-3.355,3.109-8.387,3.109-14.2,0-2.946-.286-6.669-0.573-10.556a14.455,14.455,0,0,1,.082-1.882c0.082-.7,0-0.9-0.818-1.1A23.637,23.637,0,0,0,149.177,80.988ZM191.847,101c3.027,0,6.055.041,9.124,0.082,0.572,0.04.736-.123,0.736-0.614a30.1,30.1,0,0,0,0-3.846c0-.491-0.123-0.614-0.736-0.573-3.151.041-6.3,0.123-9.411,0.123H178.386a52.55,52.55,0,0,1-8.837-.491,44.4,44.4,0,0,0,.613,4.95,0.9,0.9,0,0,0,.941.86,32.718,32.718,0,0,1,6.015-.491h14.729ZM83.687,159.061c-1.923-.163-2.9-0.163-3.928-0.163-4.951,0-8.183,2.5-8.183,5.809,0,3.4,3.028,5.728,8.347,5.728,5.605,0,8.265-1.8,8.306-6.218a32.448,32.448,0,0,1,8.142,4.664,0.629,0.629,0,0,0,.45.2,0.6,0.6,0,0,0,.532-0.327,12.29,12.29,0,0,0,1.8-3.028,0.742,0.742,0,0,0-.286-0.982,36.46,36.46,0,0,0-10.842-4.95c-0.123-1.882-.2-3.887-0.286-5.769a74.244,74.244,0,0,0,8.019-.982c0.45-.041.614-0.164,0.614-0.573,0-1.227-.082-2.577-0.123-3.355-0.041-.368-0.164-0.45-0.655-0.327-2.946.45-4.91,0.859-8.019,1.064,0-1.473-.041-2.987-0.041-4.624a83.6,83.6,0,0,0,9.451-1.063c0.327-.041.45-0.123,0.45-0.655a21.856,21.856,0,0,0-.2-2.987c-0.041-.491-0.2-0.614-0.7-0.491a68.931,68.931,0,0,1-8.96,1.228c0.041-1.228.041-1.8,0.082-2.619a5.263,5.263,0,0,1,.614-1.964,0.833,0.833,0,0,0-.45-1.227,23.733,23.733,0,0,0-5.155-.737,11.782,11.782,0,0,1,.491,2.742c0.041,1.391.082,2.454,0.082,3.968a93.573,93.573,0,0,1-10.719-.409c0.082,1.678.164,2.66,0.286,3.682a0.577,0.577,0,0,0,.7.573,67.191,67.191,0,0,0,9.779.205c0.041,1.555.041,3.15,0.082,4.7a57.564,57.564,0,0,1-9.206-.327,24.415,24.415,0,0,0,.245,3.477c0.041,0.532.2,0.7,0.655,0.7a72.738,72.738,0,0,0,8.428.164C83.523,155.584,83.6,157.261,83.687,159.061Zm0.082,3.887a3.925,3.925,0,0,1-.45,2.291c-0.573.737-2.087,1.228-3.723,1.228-2.823,0-4.05-.778-4.05-1.841,0-1.31,1.432-2.169,4.419-2.169A17.672,17.672,0,0,1,83.769,162.948Zm26.8-10.8a20.9,20.9,0,0,0,2.209,3.969,1.5,1.5,0,0,0,1.064.736,1.281,1.281,0,0,0,.818-0.409,13.2,13.2,0,0,1,2.291-1.269c4.46-1.8,8.756-3.191,11.579-3.191,3.273,0,5.073,1.6,5.073,4.5a6.4,6.4,0,0,1-3.682,6.1c-2.823,1.391-5.073,2.087-9.86,2.823a8.6,8.6,0,0,1,2.5,2.7,1.062,1.062,0,0,0,1.35.573,22.206,22.206,0,0,0,8.469-2.7c3.887-2.087,5.851-4.992,5.851-9.165,0-5.114-3.764-8.756-9.329-8.756-2.946,0-6.914.819-11.947,2.5A43.945,43.945,0,0,1,110.568,152.147ZM182.3,138.6a4.315,4.315,0,0,0-4.418,4.378A4.419,4.419,0,1,0,182.3,138.6Zm0,1.964a2.414,2.414,0,1,1-2.414,2.414A2.344,2.344,0,0,1,182.3,140.568ZM162,139.3a37.558,37.558,0,0,1,8.756,4.582,0.927,0.927,0,0,0,.572.287,0.732,0.732,0,0,0,.573-0.41,24.335,24.335,0,0,0,1.841-2.945,0.737,0.737,0,0,0-.245-1.064,36.616,36.616,0,0,0-8.428-4.051,0.623,0.623,0,0,0-.819.246C163.516,136.927,162.779,138.113,162,139.3Zm-1.227,24.016a11.651,11.651,0,0,1,1.063,4.3,0.79,0.79,0,0,0,.655.819,13.392,13.392,0,0,0,4.5.654c3.806,0,7.651-2.086,7.651-6.341,0-2.333-.941-4.5-4.746-7.488-2.659-2.086-3.4-2.823-3.4-3.846a4.767,4.767,0,0,1,1.186-2.905,1.237,1.237,0,0,0,.246-0.45,0.423,0.423,0,0,0-.164-0.327,19.345,19.345,0,0,0-2.9-2.25c-1.964,2.086-2.823,3.8-2.823,6.137,0,1.882.818,3.519,3.559,5.769,3.314,2.741,4.051,3.518,4.051,4.95,0,1.473-.941,2.333-2.987,2.333A15.156,15.156,0,0,1,160.775,163.316Zm-2.292-4.868a12.549,12.549,0,0,1-2.536,2.7,2.047,2.047,0,0,1-1.432.573c-0.7,0-1.351-.7-2.373-3.232a0.407,0.407,0,0,0-.287-0.369,0.565,0.565,0,0,0-.368.2,26.007,26.007,0,0,0-2.5,2.086c-0.2.205-.245,0.287-0.122,0.778,1.268,4.173,3.436,5.4,5.6,5.4a5.837,5.837,0,0,0,3.437-1.514,9.926,9.926,0,0,0,1.963-1.964,1.082,1.082,0,0,0,.369-0.818,1.235,1.235,0,0,0-.369-0.737A9.35,9.35,0,0,1,158.483,158.448Zm17.225-3.683a24.177,24.177,0,0,1,5.974,8.388c0.2,0.45.491,0.573,0.859,0.327a17.3,17.3,0,0,0,2.987-2.373,0.6,0.6,0,0,0,.163-0.9,23.907,23.907,0,0,0-6.26-7.692,0.415,0.415,0,0,0-.286-0.164,1.372,1.372,0,0,0-.409.164C177.877,153.129,176.69,153.947,175.708,154.765Z" transform="translate(-53.5 -80.063)"/>
</svg>
